<?xml version="1.0" standalone="no"?><!DOCTYPE svg PUBLIC "-//W3C//DTD SVG 1.1//EN" "http://www.w3.org/Graphics/SVG/1.1/DTD/svg11.dtd"><svg t="1578363511826" class="icon" viewBox="0 0 1024 1024" version="1.1" xmlns="http://www.w3.org/2000/svg" p-id="2907" xmlns:xlink="http://www.w3.org/1999/xlink" width="200" height="200"><defs><style type="text/css"></style></defs><path d="M512 0a512 512 0 1 0 512 512 512 512 0 0 0-512-512z m357.668571 623.908571l-10.24 128.731429-87.771428 41.691429L723.382857 877.714286H593.92l-116.297143 54.857143L397.897143 877.714286H300.617143l-64.365714-111.908572-106.057143-73.142857 8.045714-96.548571L89.965714 512l64.365715-111.908571 10.24-128.731429 87.771428-41.691429L300.617143 146.285714h129.462857l116.297143-54.857143L626.102857 146.285714h97.28l64.365714 111.908572 106.057143 73.142857-8.045714 96.548571 48.274286 84.114286z" fill="#0063F7" p-id="2908"></path><path d="M836.022857 438.857143l6.582857-84.114286L750.445714 292.571429 694.857143 195.291429H610.742857L541.257143 146.285714 438.857143 195.291429H329.142857l-41.691428 73.142857-73.142858 35.84-12.434285 111.177143L146.285714 512l41.691429 73.142857-6.582857 83.382857 92.16 62.902857 55.588571 96.548572h84.114286l69.485714 49.737143 102.4-49.005715h109.714286l41.691428-73.142857 73.142858-35.84 8.777142-111.177143L877.714286 512z m-68.754286 0L449.828571 684.617143a18.285714 18.285714 0 0 1-25.6 0l-112.64-146.285714A18.285714 18.285714 0 1 1 337.188571 512L438.857143 645.12l302.811428-236.251429a18.285714 18.285714 0 1 1 22.674286 28.525715z" fill="#0063F7" p-id="2909"></path></svg>