<?xml version="1.0" standalone="no"?><!DOCTYPE svg PUBLIC "-//W3C//DTD SVG 1.1//EN" "http://www.w3.org/Graphics/SVG/1.1/DTD/svg11.dtd"><svg t="1578364669754" class="icon" viewBox="0 0 1024 1024" version="1.1" xmlns="http://www.w3.org/2000/svg" p-id="14966" xmlns:xlink="http://www.w3.org/1999/xlink" width="200" height="200"><defs><style type="text/css"></style></defs><path d="M510.66368 369.94048c76.7744 0 139.2384 62.46912 139.2384 139.22816 0 76.75392-62.464 139.22304-139.2384 139.22304-76.75392 0-139.22816-62.46912-139.22816-139.22304-0.01024-76.75904 62.47424-139.22816 139.22816-139.22816m0-61.88544c-111.07328 0-201.1136 90.04032-201.1136 201.1136 0 111.06304 90.0352 201.10336 201.1136 201.10336 111.08352 0 201.12384-90.04032 201.12384-201.10336 0-111.07328-90.04032-201.1136-201.12384-201.1136m497.2032 323.88608a507.57632 507.57632 0 0 0 13.34272-115.93216c0-39.41888-4.51072-78.23872-13.34272-115.94752a30.96064 30.96064 0 1 0-60.288 14.14144 445.24544 445.24544 0 0 1 11.71456 101.8112c0 34.63168-3.95264 68.71552-11.71456 101.80096a30.96064 30.96064 0 1 0 60.288 14.12608z m-36.58752 23.76704c1.96608 0 3.6096 0.03072 5.09952 0.09216a30.95552 30.95552 0 1 0 2.69312-61.8496 178.42176 178.42176 0 0 0-7.78752-0.14336 30.94016 30.94016 0 0 0-30.94528 30.94528 30.93504 30.93504 0 0 0 30.94016 30.95552z m-101.0688 186.21952a119.9616 119.9616 0 0 1-19.456-65.6896c0-66.57024 53.95968-120.52992 120.5248-120.52992a30.96064 30.96064 0 1 0 0-61.91104c-100.75136 0-182.44096 81.67936-182.44096 182.44096a181.8112 181.8112 0 0 0 29.4912 99.47648 30.94528 30.94528 0 0 0 42.8288 9.04704 30.9504 30.9504 0 0 0 9.05216-42.83392z m-209.4848 159.19616c77.02528-23.13728 147.20512-64.39936 205.0048-119.99232a30.96064 30.96064 0 0 0-42.91072-44.62592c-50.75968 48.82432-112.34816 85.02784-179.91168 105.31328a30.96576 30.96576 0 0 0 17.8176 59.30496z m-255.11936-16.46592a120.46848 120.46848 0 0 1 109.08672-69.26336 120.5248 120.5248 0 0 1 109.11744 69.26336 30.96576 30.96576 0 0 0 56.02816-26.368c-29.84448-63.42656-93.76768-104.81152-165.1456-104.81152-71.36768 0-135.26528 41.37472-165.11488 104.81152a30.96576 30.96576 0 0 0 56.02816 26.368z m-240.57344-102.20544c57.55392 54.92224 127.22688 95.69792 203.64288 118.67136a30.96064 30.96064 0 0 0 38.55872-20.736 30.94016 30.94016 0 0 0-20.736-38.54848c-67.03616-20.15744-128.18432-55.94624-178.71872-104.17664a30.96064 30.96064 0 0 0-42.74688 44.78976z m-104.832-226.74432c66.56512 0 120.52992 53.95968 120.52992 120.52992a119.9104 119.9104 0 0 1-20.10112 66.67264 30.96064 30.96064 0 0 0 8.63232 42.92096 30.94016 30.94016 0 0 0 42.91584-8.64256 181.82656 181.82656 0 0 0 30.45888-100.95616c0-100.7616-81.68448-182.44096-182.43584-182.44096-17.09568 0-30.96064 13.8496-30.96064 30.9504s13.86496 30.96576 30.96064 30.96576z m-6.81472 0.16896a127.1296 127.1296 0 0 1 6.81984-0.16384 30.95552 30.95552 0 0 0 0-61.91104c-3.5584 0-6.93248 0.08192-10.2144 0.256a30.95552 30.95552 0 1 0 3.39456 61.81888z m-31.84128-255.8976a508.35456 508.35456 0 0 0-13.37856 116.03456 508.4672 508.4672 0 0 0 13.37856 116.02432 30.9504 30.9504 0 1 0 60.27776-14.1312 446.42304 446.42304 0 0 1-11.74016-101.89312c0-34.60608 3.968-68.72064 11.74016-101.90848a30.96064 30.96064 0 0 0-60.27776-14.12608z m38.656-23.68512c-2.47296 0-4.73088-0.0512-6.81984-0.16384a30.96064 30.96064 0 0 0-3.39968 61.81376c3.28704 0.18432 6.656 0.26624 10.2144 0.26624a30.95552 30.95552 0 0 0 30.9504-30.9504 30.95552 30.95552 0 0 0-30.94528-30.96576z m100.4288-187.20768a119.95648 119.95648 0 0 1 20.10112 66.70848c0 66.56-53.9648 120.4992-120.52992 120.4992a30.95552 30.95552 0 0 0 0 61.90592c100.7616 0 182.43584-81.64864 182.43584-182.40512a181.84704 181.84704 0 0 0-30.45888-100.98688 30.9504 30.9504 0 1 0-51.54816 34.2784zM368.68096 30.88384C292.26496 53.8624 222.58688 94.63296 165.03296 149.5552a30.96064 30.96064 0 0 0 42.74688 44.78976c50.5344-48.22528 111.68256-84.0192 178.71872-104.1664a30.9504 30.9504 0 0 0 20.736-38.5536 30.94528 30.94528 0 0 0-38.5536-20.74112z m255.12448 16.46592a120.50944 120.50944 0 0 1-109.0816 69.26336A120.47872 120.47872 0 0 1 405.6064 47.34976a30.96576 30.96576 0 0 0-56.02816 26.35776 182.40512 182.40512 0 0 0 165.1456 104.81152c71.3472 0 135.2704-41.38496 165.10976-104.81152a30.95552 30.95552 0 0 0-56.02816-26.35776z m241.92512 103.52128c-57.79968-55.56736-127.9744-96.8192-204.99456-119.9872a30.95552 30.95552 0 1 0-17.83296 59.2896c67.56864 20.31616 129.16224 56.52992 179.92192 105.32352a30.95552 30.95552 0 1 0 42.9056-44.62592z m105.5488 225.42336c-66.56512 0-120.5248-53.9392-120.5248-120.4992 0-23.69536 6.82496-46.30528 19.456-65.72032a30.94528 30.94528 0 0 0-9.05216-42.8288 30.92992 30.92992 0 0 0-42.81856 9.05728 181.78048 181.78048 0 0 0-29.50144 99.49696c0 100.7616 81.67936 182.41024 182.44096 182.41024a30.95552 30.95552 0 1 0 0-61.91616z m5.09952-0.09216c-1.48992 0.06656-3.13344 0.09216-5.09952 0.09216a30.9504 30.9504 0 0 0 0 61.90592 169.984 169.984 0 0 0 7.78752-0.1536 30.9504 30.9504 0 1 0-2.688-61.84448z" p-id="14967" fill="#13227a"></path></svg>