<?xml version="1.0" standalone="no"?><!DOCTYPE svg PUBLIC "-//W3C//DTD SVG 1.1//EN" "http://www.w3.org/Graphics/SVG/1.1/DTD/svg11.dtd"><svg t="1578366012305" class="icon" viewBox="0 0 1024 1024" version="1.1" xmlns="http://www.w3.org/2000/svg" p-id="15775" xmlns:xlink="http://www.w3.org/1999/xlink" width="200" height="200"><defs><style type="text/css"></style></defs><path d="M391.90179 523.016915c-58.093485 0-105.356865-47.239907-105.356865-105.304348 0-58.117652 47.26338-105.399515 105.356865-105.399515S497.258655 359.594915 497.258655 417.712567C497.258655 475.777007 449.995275 523.016915 391.90179 523.016915zM391.90179 332.778152c-46.80799 0-84.889882 38.10076-84.889882 84.933391 0 46.780443 38.080869 84.838224 84.889882 84.838224s84.889882-38.057781 84.889882-84.838224C476.791672 370.879935 438.709781 332.778152 391.90179 332.778152z" p-id="15776" fill="#13227a"></path><path d="M524.48793 728.457914 502.080677 591.891562 436.247603 570.104349 442.679352 550.675858 520.271731 576.354704 544.684748 725.144448Z" p-id="15777" fill="#13227a"></path><path d="M259.315651 728.457914 239.118832 725.144448 263.530826 576.354704 341.125252 550.675858 347.555978 570.104349 281.722904 591.891562Z" p-id="15778" fill="#13227a"></path><path d="M605.928102 359.872231l95.123374 0 0 20.466124-95.123374 0 0-20.466124Z" p-id="15779" fill="#13227a"></path><path d="M605.928102 454.991612l190.245724 0 0 20.466124-190.245724 0 0-20.466124Z" p-id="15780" fill="#13227a"></path><path d="M605.928102 550.109969l190.245724 0 0 20.466124-190.245724 0 0-20.466124Z" p-id="15781" fill="#13227a"></path><path d="M605.928102 645.229351l190.245724 0 0 20.466124-190.245724 0 0-20.466124Z" p-id="15782" fill="#13227a"></path><path d="M391.90179 787.906887l237.806899 0 0 20.466124-237.806899 0 0-20.466124Z" p-id="15783" fill="#13227a"></path><path d="M877.750103 808.373011 677.270888 808.373011 677.270888 787.906887 857.28312 787.906887 857.28312 237.659795 164.328383 237.659795 164.328383 787.906887 344.340615 787.906887 344.340615 808.373011 143.8614 808.373011 143.8614 217.193671 877.750103 217.193671Z" p-id="15784" fill="#13227a"></path></svg>