<?xml version="1.0" standalone="no"?><!DOCTYPE svg PUBLIC "-//W3C//DTD SVG 1.1//EN" "http://www.w3.org/Graphics/SVG/1.1/DTD/svg11.dtd"><svg t="1578363901122" class="icon" viewBox="0 0 1024 1024" version="1.1" xmlns="http://www.w3.org/2000/svg" p-id="9561" xmlns:xlink="http://www.w3.org/1999/xlink" width="200" height="200"><defs><style type="text/css"></style></defs><path d="M0.00064 511.99968c0-283.327823 228.671857-511.99968 511.99968-511.99968s511.99968 228.671857 511.99968 511.99968-228.671857 511.99968-511.99968 511.99968a511.35968 511.35968 0 0 1-511.99968-511.99968z m245.887846 245.759846l17.983989 17.919989c4.735997 4.799997 137.471914-19.519988 149.503907-31.55198l22.399986-22.399986-135.807915-135.679915-22.399986 22.335986c-11.967993 11.967993-36.479977 144.57591-31.679981 149.311906z m494.719691-519.359675a63.99996 63.99996 0 0 0-90.559943 0l-316.799802 316.799802 135.807915 135.679915 316.799802-316.735802a63.99996 63.99996 0 0 0 0-90.495943l-45.311972-45.247972z" p-id="9562" fill="#f4ea2a"></path></svg>